<svg id="Layer_1" data-name="Layer 1" xmlns="http://www.w3.org/2000/svg" xmlns:xlink="http://www.w3.org/1999/xlink" viewBox="0 0 170 170"><defs><style>.cls-1{fill:none;}.cls-2{fill:#b6352b;}.cls-3{fill:#a32f25;}.cls-4{clip-path:url(#clip-path);}.cls-5{fill:#d9a88c;}.cls-6{fill:#c0d5e0;}.cls-7{fill:#e9c0a7;}.cls-8{fill:#f2d8bc;}.cls-9{fill:#d0e1eb;}.cls-10{fill:#fff;}.cls-11{fill:#8b603d;}</style><clipPath id="clip-path" transform="translate(-8.89 -8.13)"><circle id="SVGID" class="cls-1" cx="93.89" cy="93.12" r="85"/></clipPath></defs><title>avatar</title><g id="men_1" data-name="men 1"><circle class="cls-2" cx="85" cy="85" r="85"/><path class="cls-3" d="M178.88,93.13a85,85,0,0,0-85-85v170A85,85,0,0,0,178.88,93.13Z" transform="translate(-8.89 -8.13)"/><g class="cls-4"><rect class="cls-5" x="72.55" y="106.43" width="24.89" height="27.29"/><path class="cls-6" d="M109.35,130.83s23.67,3.46,27.16,7.1c3,3.17,9.37,33.53,10.83,40.2H93.89v-46Z" transform="translate(-8.89 -8.13)"/><path class="cls-7" d="M93.89,36.46c12.09,0,31.2,6.87,31.2,39.07,0,18.59-6.06,30.77-8.7,34.14-2.43,3.1-16.09,9.7-22.5,9.7V36.46Z" transform="translate(-8.89 -8.13)"/><path class="cls-7" d="M131.1,83.2c0.53-5.14-1.92-9.71-5.47-10.2s-6.87,3.29-7.41,8.43,1.92,9.71,5.48,10.2S130.56,88.34,131.1,83.2Z" transform="translate(-8.89 -8.13)"/><path class="cls-8" d="M93.89,36.46c-12.09,0-31.2,6.87-31.2,39.07,0,18.59,6.06,30.77,8.7,34.14,2.43,3.1,16.09,9.7,22.5,9.7V36.46Z" transform="translate(-8.89 -8.13)"/><path class="cls-8" d="M56.67,83.2c-0.53-5.14,1.92-9.71,5.47-10.2s6.87,3.29,7.4,8.43-1.92,9.71-5.47,10.2S57.21,88.34,56.67,83.2Z" transform="translate(-8.89 -8.13)"/><path class="cls-9" d="M78.42,130.83s-23.67,3.46-27.16,7.1c-3,3.17-9.37,33.53-10.84,40.2H93.89v-46Z" transform="translate(-8.89 -8.13)"/><polygon class="cls-10" points="85 123.99 72.36 118.9 69.25 122.06 75.54 136.01 85 123.99"/><polygon class="cls-10" points="85 123.99 97.64 118.9 100.75 122.06 94.46 136.01 85 123.99"/><path class="cls-11" d="M125.76,73.77S136,27.14,93.67,27.14c-42.54,0-31.86,45.35-31.86,45.35S67.62,69.15,67.62,84h1.07a167.38,167.38,0,0,0,2.69-18.92c15,0,28.19-1.92,39.32-11.12,6.32,0,7.18,7.87,7.18,13.89l-2.77,1.07S117.78,74.19,118,84h1.92S119.61,67.62,125.76,73.77Z" transform="translate(-8.89 -8.13)"/><path class="cls-10" d="M93.89,107.22c5.63,0,10.2-1.86,10.2-4.16H83.69C83.69,105.36,88.25,107.22,93.89,107.22Z" transform="translate(-8.89 -8.13)"/></g></g></svg>